<svg width="758" height="676" viewBox="0 0 758 676" fill="none" xmlns="http://www.w3.org/2000/svg">
<path d="M447.658 454.442C435.716 451.044 412.827 498 377 498C394.962 498 408.434 465.232 415.419 454.442C422.404 443.651 431.513 428.5 437.5 428.5C451.471 428.5 469.894 447.307 493.5 451.5C542.896 460.274 573.063 446.076 598.035 432.465C615.789 422.788 655.297 383.55 684.852 345.757C716.785 304.924 743.602 259.049 741.732 253C749.716 271.652 718.781 352.815 682.856 395.665C665.528 416.333 606.533 485.189 540.707 485.189C486.968 485.189 472.537 461.522 447.658 454.442Z" fill="#007E3A"/>
<path d="M308.342 454.442C320.284 451.044 343.173 498 379 498C361.038 498 347.566 465.232 340.581 454.442C333.596 443.651 324.487 428.5 318.5 428.5C304.529 428.5 286.106 447.307 262.5 451.5C213.104 460.274 182.937 446.076 157.965 432.465C140.211 422.788 100.703 383.55 71.1478 345.757C39.215 304.924 12.3978 259.049 14.2675 253C6.2843 271.652 37.2192 352.815 73.1436 395.665C90.4719 416.333 149.467 485.189 215.293 485.189C269.032 485.189 283.463 461.522 308.342 454.442Z" fill="#007E3A"/>
<path d="M431.865 433.423C406.247 461.389 399.646 495.57 379.852 497.901C366.655 499.454 357.339 482.364 352.681 476.149C348.023 469.935 341.088 456.797 327.063 438.084C317.747 425.655 315.418 429.539 305.326 435.754C289.66 445.401 264.181 464.266 209.839 456.728C149.718 448.389 84.852 364.285 84.852 364.285C84.852 364.285 41.674 309.647 19.6414 271.065C13.4309 260.189 10.3256 250.608 21.194 246.983C46.8125 238.437 88.4125 229.189 103.484 227.562C211.391 215.909 244.773 233 244.773 233C244.773 233 243.989 263.81 248.655 282.717C260.348 330.104 288.247 353.409 288.247 353.409C303.36 369.723 316.194 379.045 336.378 388.367C335.602 396.912 330.966 401.128 334.826 414.002C337.155 421.771 366.655 449.737 366.655 449.737C366.655 449.737 368.984 416.333 370.536 395.358C370.938 389.935 367.11 382.669 360.444 380.598C337.931 373.607 316.194 355.74 316.194 355.74C278.155 322.336 275.826 309.906 266.51 285.824C264.106 279.61 250.984 236.884 271.944 173.96C274.791 165.415 306.102 82.2933 368.207 7.7169C370.536 4.92028 382.181 -8.59661 394.602 8.49373C418.668 35.683 439.379 68.8298 463.694 110.259C492.418 159.2 503.286 219.016 503.286 219.016C466.799 227.562 431.825 251.451 412.457 292.816C397.585 324.58 397.707 358.847 403.142 382.152C398.484 381.375 395.378 382.929 392.273 386.813C389.944 409.341 395.378 447.406 395.378 447.406C395.378 447.406 407.223 429.349 417.892 420.994C435.747 407.011 393.286 342.533 435.747 284.271C466.105 242.616 502.614 231.548 553.747 225.231C616.628 217.463 684.914 233.149 695.813 235.33C703.576 236.884 751.708 244.142 741.615 261.742C660.102 403.904 582.471 458.282 526.576 458.282C467.576 460.612 445.839 418.169 431.865 433.423Z" fill="#06AA51"/>
<path d="M9.96 540.44C10.76 539.16 11.76 538 12.96 536.96C14.24 535.92 15.36 535.32 16.32 535.16C17.36 534.92 18 535.16 18.24 535.88L38.04 612.68L67.32 541.52C67.8 540.4 68.6 539.24 69.72 538.04C70.92 536.84 72.08 536 73.2 535.52C74.4 534.96 75.24 534.92 75.72 535.4C76.2 535.8 76.2 536.56 75.72 537.68L40.2 624.08C39.4 626.08 38.28 627.52 36.84 628.4C35.4 629.36 34.16 629.84 33.12 629.84L31.44 629.72L9.12 543.32C8.96 542.6 9.24 541.64 9.96 540.44ZM149.314 535.04C150.114 535.04 150.514 535.44 150.514 536.24C150.514 537.12 150.034 538.2 149.074 539.48C148.194 540.76 147.114 541.88 145.834 542.84C144.554 543.72 143.474 544.16 142.594 544.16H102.154L99.2738 577.76C112.874 577.76 126.514 577.76 140.194 577.76C141.394 577.76 141.714 578.52 141.154 580.04C140.514 582.04 139.274 583.68 137.434 584.96C135.674 586.24 134.354 586.88 133.474 586.88C121.794 586.88 110.114 586.88 98.4338 586.88L95.5538 621.44C110.914 621.44 126.314 621.44 141.754 621.44C142.954 621.44 143.274 622.2 142.714 623.72C142.074 625.72 140.834 627.36 138.994 628.64C137.234 629.92 135.914 630.56 135.034 630.56H87.8738C87.3138 630.64 86.8738 630.52 86.5538 630.2C86.3138 629.96 86.2338 629.52 86.3138 628.88L93.6338 542.72C93.7138 541.84 94.2338 540.72 95.1938 539.36C96.9538 537.04 98.7938 535.64 100.714 535.16C101.114 535.08 101.394 535.04 101.554 535.04C101.714 535.04 101.874 535.04 102.034 535.04H149.314ZM193.014 594.92C188.294 596.36 184.174 597.08 180.654 597.08C177.214 597.08 174.574 597 172.734 596.84L170.574 622.88C170.494 623.76 169.974 624.84 169.014 626.12C168.054 627.4 167.054 628.4 166.014 629.12C164.974 629.84 164.134 630.28 163.494 630.44C162.054 630.84 161.374 630.4 161.454 629.12L168.774 542.72C168.854 541.84 169.374 540.72 170.334 539.36C172.334 536.72 174.334 535.28 176.334 535.04C181.054 533.12 185.894 532.16 190.854 532.16C195.894 532.16 200.614 533.16 205.014 535.16C210.774 537.8 215.054 541.44 217.854 546.08C220.734 550.72 222.174 555.56 222.174 560.6C222.174 570.12 217.734 578.68 208.854 586.28C207.094 587.8 205.254 589.12 203.334 590.24L216.774 622.04C217.014 622.68 216.774 623.64 216.054 624.92C215.414 626.12 214.494 627.24 213.294 628.28C212.094 629.4 210.934 630.12 209.814 630.44C208.774 630.76 208.134 630.6 207.894 629.96L193.014 594.92ZM200.454 585.2C208.854 581.84 213.054 575.84 213.054 567.2C213.054 562.8 211.734 558.44 209.094 554.12C206.534 549.8 202.894 546.6 198.174 544.52C193.454 542.36 188.774 541.28 184.134 541.28C181.814 541.28 179.574 541.52 177.414 542L173.694 586.64C182.014 588.64 189.974 588.48 197.574 586.16C198.694 585.44 199.654 585.12 200.454 585.2ZM238.456 629.12L246.856 542.72C247.336 539.68 248.816 537.44 251.296 536C252.256 535.44 253.336 535.12 254.536 535.04C290.856 532.88 308.536 547.72 307.576 579.56C307.176 591.56 303.816 601.76 297.496 610.16C291.256 618.48 283.336 624.16 273.736 627.2C264.136 630.24 252.736 631.36 239.536 630.56C238.736 630.56 238.376 630.08 238.456 629.12ZM247.696 621.56C259.376 622.2 268.936 621.32 276.376 618.92C283.816 616.44 288.936 613.28 291.736 609.44C295.816 603.92 298.056 596.12 298.456 586.04C298.856 572.12 295.496 561.68 288.376 554.72C281.256 547.68 270.216 544.08 255.256 543.92L247.696 621.56ZM385.165 535.04C385.965 535.04 386.365 535.44 386.365 536.24C386.365 537.12 385.885 538.2 384.925 539.48C384.045 540.76 382.965 541.88 381.685 542.84C380.405 543.72 379.325 544.16 378.445 544.16H338.005L335.125 577.76C348.725 577.76 362.365 577.76 376.045 577.76C377.245 577.76 377.565 578.52 377.005 580.04C376.365 582.04 375.125 583.68 373.285 584.96C371.525 586.24 370.205 586.88 369.325 586.88C357.645 586.88 345.965 586.88 334.285 586.88L331.405 621.44C346.765 621.44 362.165 621.44 377.605 621.44C378.805 621.44 379.125 622.2 378.565 623.72C377.925 625.72 376.685 627.36 374.845 628.64C373.085 629.92 371.765 630.56 370.885 630.56H323.725C323.165 630.64 322.725 630.52 322.405 630.2C322.165 629.96 322.085 629.52 322.165 628.88L329.485 542.72C329.565 541.84 330.085 540.72 331.045 539.36C332.805 537.04 334.645 535.64 336.565 535.16C336.965 535.08 337.245 535.04 337.405 535.04C337.565 535.04 337.725 535.04 337.885 535.04H385.165ZM440.746 542.6C440.826 541.72 441.346 540.64 442.306 539.36C443.346 538.08 444.346 537.12 445.306 536.48C446.346 535.76 447.186 535.32 447.826 535.16C448.546 535 449.066 535.04 449.386 535.28C449.786 535.52 449.946 535.96 449.866 536.6L442.186 605.24C441.626 610.76 439.906 615.48 437.026 619.4C431.666 626.92 424.426 630.64 415.306 630.56C401.786 630.48 394.746 624.08 394.186 611.36C394.186 610.56 394.586 609.52 395.386 608.24C396.266 606.96 397.226 605.96 398.266 605.24C399.306 604.44 400.186 603.92 400.906 603.68C402.426 603.12 403.226 603.44 403.306 604.64C403.866 615.76 410.106 621.36 422.026 621.44C426.106 621.44 428.946 620.84 430.546 619.64C431.026 619.08 431.506 617.92 431.986 616.16C432.546 614.4 432.906 612.76 433.066 611.24L440.746 542.6ZM466.471 627.8C465.351 629 464.231 629.8 463.111 630.2C461.991 630.68 461.191 630.64 460.711 630.08C460.311 629.6 460.391 628.8 460.951 627.68L500.551 541.28L504.151 537.08C507.111 534.28 508.791 533.88 509.191 535.88L527.191 622.28C527.351 623 527.031 624 526.231 625.28C525.431 626.56 524.391 627.68 523.111 628.64C521.911 629.68 520.791 630.28 519.751 630.44C518.791 630.68 518.231 630.44 518.071 629.72L512.431 602.24C512.351 602.24 512.231 602.24 512.071 602.24H479.311L469.111 624.32C468.551 625.52 467.671 626.68 466.471 627.8ZM510.511 593.12L501.991 552.56L483.511 593.12H510.511ZM554.358 622.88C554.278 623.84 553.758 624.96 552.798 626.24C551.838 627.52 550.838 628.48 549.798 629.12C548.758 629.84 547.918 630.28 547.278 630.44C545.838 630.84 545.158 630.4 545.238 629.12L553.638 542.72C556.678 538.96 558.838 536.72 560.118 536C561.478 535.2 562.318 535.08 562.638 535.64L598.158 607.64L603.798 542.72C603.878 541.84 604.398 540.76 605.358 539.48C606.318 538.12 607.318 537.12 608.358 536.48C609.398 535.76 610.238 535.32 610.878 535.16C612.318 534.76 612.998 535.2 612.918 536.48L605.358 622.88C605.278 623.84 604.478 624.92 602.958 626.12C601.438 627.32 599.958 628.24 598.518 628.88L596.358 629.96L560.718 557.6L554.358 622.88ZM621.728 541.88C621.968 541.16 622.448 540.28 623.168 539.24C623.888 538.2 624.888 537.24 626.168 536.36C627.448 535.48 628.528 535.04 629.408 535.04H683.768C684.968 535.04 685.288 535.8 684.728 537.32C684.088 539.32 682.848 540.96 681.008 542.24C679.248 543.52 677.928 544.16 677.048 544.16H658.448L651.728 622.88C651.648 623.76 651.128 624.84 650.168 626.12C649.208 627.4 648.208 628.4 647.168 629.12C646.128 629.84 645.288 630.28 644.648 630.44C643.208 630.84 642.528 630.4 642.608 629.12L649.808 544.16H622.688C621.568 544.16 621.248 543.4 621.728 541.88ZM756.65 535.04C757.45 535.04 757.85 535.44 757.85 536.24C757.85 537.12 757.37 538.2 756.41 539.48C755.53 540.76 754.45 541.88 753.17 542.84C751.89 543.72 750.81 544.16 749.93 544.16H709.49L706.61 577.76C720.21 577.76 733.85 577.76 747.53 577.76C748.73 577.76 749.05 578.52 748.49 580.04C747.85 582.04 746.61 583.68 744.77 584.96C743.01 586.24 741.69 586.88 740.81 586.88C729.13 586.88 717.45 586.88 705.77 586.88L702.89 621.44C718.25 621.44 733.65 621.44 749.09 621.44C750.29 621.44 750.61 622.2 750.05 623.72C749.41 625.72 748.17 627.36 746.33 628.64C744.57 629.92 743.25 630.56 742.37 630.56H695.21C694.65 630.64 694.21 630.52 693.89 630.2C693.65 629.96 693.57 629.52 693.65 628.88L700.97 542.72C701.05 541.84 701.57 540.72 702.53 539.36C704.29 537.04 706.13 535.64 708.05 535.16C708.45 535.08 708.73 535.04 708.89 535.04C709.05 535.04 709.21 535.04 709.37 535.04H756.65Z" fill="#414141"/>
</svg>
